<svg width="172" height="48" viewBox="0 0 172 48" fill="none" xmlns="http://www.w3.org/2000/svg">
<ellipse cx="23.5886" cy="24" rx="23.5886" ry="24" fill="#377CFB"/>
<ellipse cx="23.5886" cy="24" rx="22.2781" ry="22.6667" fill="white"/>
<ellipse cx="23.5886" cy="24" rx="20.9676" ry="21.3333" fill="#377CFB"/>
<path d="M13.1048 12.2667H34.0724V28C34.0724 32.4183 30.4907 36 26.0724 36H21.1048C16.6865 36 13.1048 32.4183 13.1048 28V12.2667Z" fill="white"/>
<rect x="15.7257" y="14.9333" width="15.7257" height="5.33333" fill="#377CFB"/>
<rect x="15.7257" y="22.1334" width="4.19352" height="2.66667" fill="#377CFB"/>
<rect x="15.7257" y="26.1333" width="4.19352" height="2.66667" fill="#377CFB"/>
<rect x="15.7257" y="30.1333" width="4.19352" height="2.66667" fill="#377CFB"/>
<rect x="21.4918" y="22.1334" width="4.19352" height="2.66667" fill="#377CFB"/>
<rect x="21.4918" y="26.1333" width="4.19352" height="2.66667" fill="#377CFB"/>
<rect x="21.4918" y="30.1333" width="4.19352" height="2.66667" fill="#377CFB"/>
<rect x="27.2579" y="22.1334" width="4.19352" height="2.66667" fill="#377CFB"/>
<rect x="27.2579" y="26.1333" width="4.19352" height="2.66667" fill="#377CFB"/>
<rect x="27.2579" y="30.1333" width="4.19352" height="2.66667" fill="#377CFB"/>
<path d="M62.0034 15.32H65.6994V17.864H62.0034V15.32ZM56.9634 12.752H59.4114V14.168C59.4114 18.152 57.9954 21.944 54.5154 23.576L52.7634 21.2C55.8114 19.808 56.9634 16.952 56.9634 14.168V12.752ZM57.6594 12.752H60.0594V14.192C60.0594 16.904 61.1154 19.4 63.8754 20.552L62.2674 22.976C58.8354 21.536 57.6594 18.104 57.6594 14.192V12.752ZM68.9634 11.936H71.9874V23.48H68.9634V11.936ZM64.5234 12.248H67.5234V23.384H64.5234V12.248ZM56.8914 24.296H71.9874V30.224H60.0834V32.936H56.9154V27.92H68.8674V26.744H56.8914V24.296ZM56.9154 31.52H72.7074V33.992H56.9154V31.52ZM90.5376 11.888H93.7296V34.184H90.5376V11.888ZM87.0576 19.904H91.1856V22.472H87.0576V19.904ZM75.8976 26.408H77.7216C81.3216 26.408 84.1776 26.336 87.3936 25.784L87.6816 28.376C84.3936 28.928 81.4176 29.048 77.7216 29.048H75.8976V26.408ZM75.8496 13.784H85.8576V22.136H79.0656V27.2H75.8976V19.616H82.7136V16.328H75.8496V13.784ZM110.932 17.768H115.444V20.312H110.932V17.768ZM110.812 23.312H115.348V25.856H110.812V23.312ZM118.468 11.912H121.516V34.136H118.468V11.912ZM113.884 12.392H116.86V33.152H113.884V12.392ZM108.868 14.528H111.94C111.94 20.84 110.044 25.88 103.852 29.528L102.052 27.296C107.068 24.248 108.868 20.552 108.868 15.176V14.528ZM103.324 14.528H109.948V17.072H103.324V14.528ZM129.434 13.28H132.05V15.68C132.05 20.096 130.058 23.888 125.81 25.352L124.106 22.856C127.874 21.656 129.434 18.68 129.434 15.68V13.28ZM130.058 13.28H132.65V15.704C132.65 18.488 134.162 21.272 137.738 22.448L136.106 24.92C131.978 23.552 130.058 19.88 130.058 15.704V13.28ZM138.746 11.912H141.938V28.16H138.746V11.912ZM141.026 18.344H144.89V20.984H141.026V18.344ZM127.61 31.208H142.73V33.752H127.61V31.208ZM127.61 26.624H130.826V32.552H127.61V26.624ZM161.832 11.912H165.048V34.136H161.832V11.912ZM155.28 14.216H158.448C158.448 21.008 156.144 26.576 148.248 30.392L146.592 27.848C152.976 24.776 155.28 20.744 155.28 14.792V14.216ZM147.768 14.216H156.792V16.736H147.768V14.216Z" fill="white"/>
</svg>
