<svg width="192" height="64" viewBox="0 0 192 64" fill="none" xmlns="http://www.w3.org/2000/svg">
<rect width="192" height="64" fill="#377CFB"/>
<path d="M73.912 24.32H77.608V26.864H73.912V24.32ZM68.872 21.752H71.32V23.168C71.32 27.152 69.904 30.944 66.424 32.576L64.672 30.2C67.72 28.808 68.872 25.952 68.872 23.168V21.752ZM69.568 21.752H71.968V23.192C71.968 25.904 73.024 28.4 75.784 29.552L74.176 31.976C70.744 30.536 69.568 27.104 69.568 23.192V21.752ZM80.872 20.936H83.896V32.48H80.872V20.936ZM76.432 21.248H79.432V32.384H76.432V21.248ZM68.8 33.296H83.896V39.224H71.992V41.936H68.824V36.92H80.776V35.744H68.8V33.296ZM68.824 40.52H84.616V42.992H68.824V40.52ZM102.446 20.888H105.638V43.184H102.446V20.888ZM98.9661 28.904H103.094V31.472H98.9661V28.904ZM87.8061 35.408H89.6301C93.2301 35.408 96.0861 35.336 99.3021 34.784L99.5901 37.376C96.3021 37.928 93.3261 38.048 89.6301 38.048H87.8061V35.408ZM87.7581 22.784H97.7661V31.136H90.9741V36.2H87.8061V28.616H94.6221V25.328H87.7581V22.784ZM122.841 26.768H127.353V29.312H122.841V26.768ZM122.721 32.312H127.257V34.856H122.721V32.312ZM130.377 20.912H133.425V43.136H130.377V20.912ZM125.793 21.392H128.769V42.152H125.793V21.392ZM120.777 23.528H123.849C123.849 29.84 121.953 34.88 115.761 38.528L113.961 36.296C118.977 33.248 120.777 29.552 120.777 24.176V23.528ZM115.233 23.528H121.857V26.072H115.233V23.528ZM141.343 22.28H143.959V24.68C143.959 29.096 141.967 32.888 137.719 34.352L136.015 31.856C139.783 30.656 141.343 27.68 141.343 24.68V22.28ZM141.967 22.28H144.559V24.704C144.559 27.488 146.071 30.272 149.647 31.448L148.015 33.92C143.887 32.552 141.967 28.88 141.967 24.704V22.28ZM150.655 20.912H153.847V37.16H150.655V20.912ZM152.935 27.344H156.799V29.984H152.935V27.344ZM139.519 40.208H154.639V42.752H139.519V40.208ZM139.519 35.624H142.735V41.552H139.519V35.624ZM173.741 20.912H176.957V43.136H173.741V20.912ZM167.189 23.216H170.357C170.357 30.008 168.053 35.576 160.157 39.392L158.501 36.848C164.885 33.776 167.189 29.744 167.189 23.792V23.216ZM159.677 23.216H168.701V25.736H159.677V23.216Z" fill="white"/>
<ellipse cx="33.5886" cy="32" rx="23.5886" ry="24" fill="#377CFB"/>
<ellipse cx="33.5886" cy="32" rx="22.2781" ry="22.6667" fill="white"/>
<ellipse cx="33.5886" cy="32" rx="20.9676" ry="21.3333" fill="#377CFB"/>
<path d="M23.1048 20.2667H44.0724V36C44.0724 40.4183 40.4907 44 36.0724 44H31.1048C26.6865 44 23.1048 40.4183 23.1048 36V20.2667Z" fill="white"/>
<rect x="25.7257" y="22.9333" width="15.7257" height="5.33333" fill="#377CFB"/>
<rect x="25.7257" y="30.1334" width="4.19352" height="2.66667" fill="#377CFB"/>
<rect x="25.7257" y="34.1333" width="4.19352" height="2.66667" fill="#377CFB"/>
<rect x="25.7257" y="38.1333" width="4.19352" height="2.66667" fill="#377CFB"/>
<rect x="31.4918" y="30.1334" width="4.19352" height="2.66667" fill="#377CFB"/>
<rect x="31.4918" y="34.1333" width="4.19352" height="2.66667" fill="#377CFB"/>
<rect x="31.4918" y="38.1333" width="4.19352" height="2.66667" fill="#377CFB"/>
<rect x="37.2579" y="30.1334" width="4.19352" height="2.66667" fill="#377CFB"/>
<rect x="37.2579" y="34.1333" width="4.19352" height="2.66667" fill="#377CFB"/>
<rect x="37.2579" y="38.1333" width="4.19352" height="2.66667" fill="#377CFB"/>
</svg>
